<svg id="Calque_1" data-name="Calque 1" xmlns="http://www.w3.org/2000/svg" xmlns:xlink="http://www.w3.org/1999/xlink" viewBox="0 0 6377.95 2834.65"><defs><style>.cls-1{fill:url(#Dégradé_sans_nom_3);}.cls-2{fill:#fdfdfd;}.cls-3{isolation:isolate;}.cls-4{fill:url(#Dégradé_sans_nom_324);}</style><linearGradient id="Dégradé_sans_nom_3" x1="-1061.83" y1="2268.2" x2="-1060.95" y2="2268.2" gradientTransform="matrix(1524, 0, 0, -1524, 1620753.34, 3457552.01)" gradientUnits="userSpaceOnUse"><stop offset="0" stop-color="#fbd83d"/><stop offset="0.24" stop-color="#ddb941"/><stop offset="0.48" stop-color="#f2e155"/><stop offset="0.81" stop-color="#d8b141"/><stop offset="1" stop-color="#d7b142"/></linearGradient><linearGradient id="Dégradé_sans_nom_324" x1="-1061.6" y1="2267.87" x2="-1061.6" y2="2266.87" gradientTransform="matrix(6112.15, 0, 0, -1166, 6491849.12, 2645608.01)" gradientUnits="userSpaceOnUse"><stop offset="0.02" stop-color="#bc8e39"/><stop offset="0.1" stop-color="#c0943b"/><stop offset="0.21" stop-color="#cda63f"/><stop offset="0.34" stop-color="#e1c247"/><stop offset="0.44" stop-color="#efde53"/><stop offset="0.46" stop-color="#f0e064"/><stop offset="0.49" stop-color="#f0e279"/><stop offset="0.53" stop-color="#f1e486"/><stop offset="0.56" stop-color="#f1e48a"/><stop offset="0.58" stop-color="#f1e383"/><stop offset="0.62" stop-color="#f0e06f"/><stop offset="0.67" stop-color="#eedc52"/><stop offset="0.68" stop-color="#ebd74f"/><stop offset="0.82" stop-color="#d4ad31"/><stop offset="0.93" stop-color="#c5941f"/><stop offset="1" stop-color="#c08a18"/></linearGradient></defs><g id="FINAL_LOGO" data-name="FINAL LOGO"><g id="Calque_1-2" data-name="Calque 1"><circle id="Ellipse_18" data-name="Ellipse 18" class="cls-1" cx="3188.66" cy="818.95" r="671.18"/></g><g id="Calque_2" data-name="Calque 2"><path id="Path_229" data-name="Path 229" class="cls-2" d="M3113.22,473.18l21.32-7.28c-29.53,2.4-33.61-18.77-39-39.39-3.5-13.27-8.68-26-13.48-40.66l37-5.78c-22.33-7.89-52.49-2.51-52.37-41.06L3106,327.35c-15.64-12-37.85,11.28-54.94-14.86,30.92-6.53,57.58-12.84,84.56-17.06,3.67-.55,11.57,8.67,13.07,14.46,7.11,30.79,14.69,61.71,18.48,93,6.73,56,10.9,112.26,17.69,168.5,2.75-31.23,4-62.69,8.68-93.66,8-53.44,16.6-107,27.88-159.71,6-28,8.9-28.22,36.37-23.65,20.74,3.44,41.12,9.22,64.17,14.46-5.32,13.18-9.25,22.93-12.84,31.8l-69.14-11.27-2.58,6.42c14.46,8.1,28.57,17.35,43.75,24,14.12,6.1,18.42,13.77,11.11,27.53a50.68,50.68,0,0,0-4,11.39c-3.21,12.47-7.72,23.14-26,19.87,17.21,6.91,13.77,17.35,9.81,29.81-8.25,25.71-15,52.05-22.7,78.89l-24.67,2.57c26,12,17.36,29.18,13.74,46.27-7,32.62-12.44,65.58-19.18,98.32a28.87,28.87,0,0,1-8.67,15.41c-11,9.14-16.49,19.52-16.31,34.24.46,39.24-.58,78.51-.21,117.75,0,7.49,4,14.95,6.08,22.44l5.78-.52c1.62-4.57,3.53-9,4.77-13.74,35-133.71,80.54-263.46,149.85-383.55,18.85-32.62,44.71-61.22,67.52-91.53,6.22-8.24,13.62-8.93,22.33-2.89,22,15.13,44.33,29.84,69.4,46.59-18,12.37-30.74,22-44.42,30.13-3.84,2.26-10.81,1.24-15.53-.52-10-3.73-19.46-8.94-29.15-13.53l-2.4,3.55,30.08,25C3437,472.4,3431.57,504,3399,495.08c9.92,14.05,1.56,22.46-7,32-41.9,46.52-72.81,100.63-106.79,152.88-40.19,61.83-49,133.25-72.9,200.08l13.39,4.63c14.69-39.27,26.68-79.15,44.12-116.48,60-128.69,149-230.91,277.61-295.8,11.83-5.95,19.78-6.13,27.73,5.06,16.14,22.73,32.79,45.08,49.39,67.78-22.09,14.2-39.27,15.82-57.31,1.13a114.91,114.91,0,0,0-38.81-19.78l44.44,37.89c-24.6,10.9-42.5,19.4-60.95,26.48-3.5,1.33-9.6-2.25-13.8-4.8-11.71-7-23.13-14.77-37.44-19.57L3488.6,602c-24.12,15.18-48.64,27.47-69.41,44.39-34.3,28-66,59.13-99.19,88.46-4.8,4.25-12.2,5.46-17.87,8.93-4.83,2.89-11,6.25-13,10.93-14.46,33.26-30.77,66.11-40.89,100.72-9.22,31.55-24.06,57.84-50.66,81.17-12.12-24.84-26.84-48.81-35.86-74.78-15.85-45.63-28-92.53-42.19-138.8-2.08-6.71-1.74-17.35-14.46-15.15-1.82.29-5.2-3.93-6.65-6.68-31.23-60-67.6-116.59-114.42-170.21l26.63-18.65c-19.52-3.73-34,15.32-47.42-3.1-9.08-12.43-21.14-22.7-32.91-35l22.93-25.56-2.26-3.12-32.79,20.24L2859.88,425c21.77-27,51.56-41.84,83.86-58.76,15.26,18.65,32,36.87,46.26,56.91,63.62,89.87,105.29,190.36,139.38,294.2,14.2,43.2,25.8,87.22,38.64,130.82a41.08,41.08,0,0,0,9.54,17.36c2.52-5.35,7.17-10.7,7.23-16.08.43-42.71.81-85.48-.9-128.14-.31-7.83-10.23-15.26-15.67-22.9-3.79-5.26-9.66-10.06-10.9-15.87C3142.4,613.38,3127.94,544.23,3113.22,473.18Z"/><path id="Path_230" data-name="Path 230" class="cls-2" d="M3058.1,806.1c-6.07,4.49-12.49,9.17-15.61,11.57-42-23.71-81.87-46.27-121.89-68.76a144.32,144.32,0,0,0-20.62-8.85c-15.61-5.79-34.55-7.78-32.87-33.58-8.68,19.81-21.37,15.13-35.17,11.19-18.22-5.2-36.87-9-55.43-12.75-9.23-1.88-14-5.4-13.21-16,1-12.93.23-26,.23-39l-5-2.49c-6.76,8.68-14.89,16.49-20,26-12.72,23.71-12.17,24-40.8,19.52-2.2-27.88,10.47-51.82,20.62-76.54,4.54-11,10.06-13.57,22.23-11.57,176,28.51,304.12,121.45,383.1,281.8,5.09,10.32,7.52,21.17,22.06,26.54,10.9,4,18.88,18.14,26,29.18,2.57,4-1.28,12.15-2.43,20.07C3114.32,920.42,3104.8,850.55,3058.1,806.1Z"/><path id="Path_231" data-name="Path 231" class="cls-2" d="M3151.3,886.53c15.94-.64,33.63,26.63,32.28,50-2.9-.67-6.48-.44-7.76-2.09-14.45-18.79-31.8-34.44-39-59.63-11.3-39.62-28.91-77.38-43.63-116.1-3.79-10.12-8.67-14.86-20.44-12.14-4.54,1-11.72-2.08-15.39-5.79-13.94-13.73-26-29.35-40.48-42.45-10.32-9.33-17.58-17.61-8.91-33.37-15.12,15.47-24.43,3.7-35.39-4-23.14-16.22-46.79-31.46-72-48.26l11.11-28.74c-1.62-.58-3-1.39-3.27-1.13-19.84,22.85-41.06,17.79-63.62,4.17-10.18-6.16-21.8-10-34.7-15.68L2844,521.1l-2.49-2.49c-10.49,9.17-21,18.28-31.46,27.47-23.86,21-23.86,21-56.39,4.23,19-26.38,37.22-52.81,56.94-78.08,2.63-3.38,13.74-3.41,19.06-1,46.27,21.45,87.88,50.43,126,84.32,95.43,84.84,156.91,190.42,190.85,312.77C3148.18,874.41,3149.71,880.51,3151.3,886.53Z"/><path id="Path_232" data-name="Path 232" class="cls-2" d="M3226.78,951.53l-14.63,11.22c-10.53-10.49-10.13-21.17,1-30.45,10-8.33,11.57-27.41,31.14-24.29,1.76.29,5.24-6.79,7.14-10.84,74.5-159.28,199.77-253.78,370.44-290.33,30.36-6.51,31.14-6.56,42.16,22.7,7.11,18.94,11.56,38.87,16.71,56-54.42,11.56-104.82,22.75-155.43,32.93-5.06,1-12-2.31-16.68-5.58-7.35-5.09-13.54-11.85-23.34-15.9,2.89,10.15,5.78,20.24,8.91,30.79L3409.1,766.2l-12.58-11.1c5.18,19.52-8.82,25.42-20.67,33.28-13,8.68-25.19,18.22-38.61,28l-17.9-10.78q-46.82,73.56-93.08,146.32Z"/><path id="Path_233" data-name="Path 233" class="cls-2" d="M3004.35,853.45c-8.68,2.89-14.87,7-19.78,5.78-21.29-4.74-42.22-11.05-63.79-16.89-1.8-8.85-3.62-17.7-6.31-30.92l-10.87,26.67c-32.5-4-64.57-6.94-96.15-12.58-7.61-1.36-13.62-11.57-21.28-18.74l-5.44,18.28c-12.72,0-26,.66-39-.44-3.38-.29-7.78-5.58-9.2-9.48-3.12-8.68-4.65-18.08-10.41-26.63-2.08,11.56-4.16,23.33-6.53,36.69l-42.83,5.58L2679.9,743c31,2.89,60.72,4.22,90.07,8.68,106.65,16.57,204.82,53.67,289,123.33,6.22,5.17,12.2,10.58,18.28,15.93q38.55,33.87,77.09,67.81c8.68,7.72,10.79,15.76,1.13,25.51C3105.24,939.36,3063.28,884.41,3004.35,853.45Z"/><path id="Path_234" data-name="Path 234" class="cls-2" d="M2830.27,924.93,2743.52,936q-2.43-21.71-4.86-43.6h-3.41c-1.16,9-4.46,18.33-2.9,26.86,2.9,17.76-5.78,23.65-20.76,25.77-4.94.69-9.74,2.2-15.5,3.49l-8.3-29.52-6.56,34.55-3.24.35c-1.82-20.24-4.11-40.72-4.95-61.13,0-2.89,6.45-7.66,10.67-8.82,149.71-41.61,290.88-31.14,417.42,68.77,11.94,9.42,25.59,16.68,38.23,25.3s16.08,19.61,8.07,33.66c-2.75,4.77-3.61,10.61-6,18.13-28.91-74.44-94.35-99.59-158.66-129.75-2.29,11-4,19.2-5,24-39.93,0-77.9.29-115.84-.41-4.16,0-9.54-5.17-12.09-9.33-4.94-8.16-8.3-17.35-16.36-25.71C2832.29,900.64,2831.31,912.64,2830.27,924.93Z"/><path id="Path_235" data-name="Path 235" class="cls-2" d="M3226.26,952a149.67,149.67,0,0,1,17-13.45c4.25-2.52,9.91-2.54,14.83-4.14a19,19,0,0,0,8.15-4.33c90.78-102.43,209.19-151.59,340.36-175.82,29.23-5.41,59-8.1,91.41-12.43,2.05,29.78,3.84,55.92,5.78,83-29.64,8.93-26.2-24.93-43.58-33.11,1,10.26,2,19.69,2.89,28.91-17.55,0-33.6.76-49.5-.52-4.17-.31-8.5-6.47-11.57-10.78-4.16-5.79-7.23-12.58-14.17-18.28l-2,27.94c-45.26,7.23-89.65,13.85-133.6,21.54-26.49,4.48-52.52,10.67-78.54,16.63a29.63,29.63,0,0,0-11.77,7c-31,26.54-61.86,53.32-92.77,80-15.67,13.51-31.43,26.92-47.51,40.66-7.78-7.81-8.13-15.15.2-23.14,2.58-2.45,3.41-6.68,5-10.09Z"/><path id="Path_236" data-name="Path 236" class="cls-2" d="M3543.77,889.59c-1.1,9.89-2.17,19.75-3.53,32.1-28.92,0-58.06.26-87.24-.41-2.89,0-6-5.78-7.87-9.36a154.52,154.52,0,0,0-8.93-17.36c-1.85,23.66-11.86,35.51-37.34,28.28l-5.46-18.68c-63.76,32.62-133.63,54.8-154.62,137.28-2.69-8-4.92-14.46-7-20.77-2.34-7.08-5-14.11-6.65-21.37-.64-2.89,0-7.78,2.05-9.31,14.46-11.1,22.07-32.47,45.61-31,3.52.23,7.51-4.83,11.1-7.66,93.84-73.6,201.18-96.27,317.48-82.71,33,3.85,65.5,11.57,99,17.53-1.68,22.82-3.18,43.12-4.75,64.34-32.5-.6-27.76-31-42.16-50.34v36.64c-30.65-4.66-58.87-8.67-86.75-13.68-3.67-.66-7.11-6.62-9.25-10.84-3.7-7.43-6.31-15.42-9.37-23.13Z"/><path id="Path_237" data-name="Path 237" class="cls-2" d="M3228.28,1063.53c-6.1-12.92-12.49-25.73-18.13-38.86a67.85,67.85,0,0,1-2.89-14.66l7.64-2.23c7.23,16.05,15,31.81,21.39,48.29,1.91,5,1.74,13.85-8.67,7Z"/><path id="Path_238" data-name="Path 238" class="cls-2" d="M3227.76,1063.07v19c-8.85-23.42-28.92-35.74-32.73-56.73l5.14-2.89,28.08,41Z"/><path id="Path_239" data-name="Path 239" class="cls-2" d="M3147.49,1079.9l28.91-55.7,6.34,3.27C3176.43,1047.71,3159.34,1062.55,3147.49,1079.9Z"/><path id="Path_240" data-name="Path 240" class="cls-2" d="M3146.5,1059.91l19-49C3174.21,1018.48,3174.21,1018.48,3146.5,1059.91Z"/><path id="Path_241" data-name="Path 241" class="cls-2" d="M3421.85,1064.74h1c0-131-106.16-237.12-237.12-237.12s-237.12,106.17-237.12,237.12h113l40.22,8.68s108.7,9.46,174.31-4,166.34,9.13,166.34,9.13S3432.84,1072.15,3421.85,1064.74Z"/></g><g id="vagues"><path id="Path_242" data-name="Path 242" class="cls-2" d="M3667.19,1064.74l-9.83-.63a267.92,267.92,0,0,0-28.34.46c-12.29.78-27.24,2.49-44.39,4.08s-36.58,2.72-58,2.6c-10.7-.18-22-.46-33.57-1.21s-23.66-1.83-35.75-3.56a317.51,317.51,0,0,1-37.33-8.13c-6.62-1.76-13.76-3.47-21.08-5s-14.83-2.57-22.38-3.44a442.56,442.56,0,0,0-45.89-2.66,423.69,423.69,0,0,0-48.06,1.85c-16.43,1.59-32.88,4.57-48.29,7a449.49,449.49,0,0,1-46.73,5c-15.91.81-31.81.92-47.54.63a392.61,392.61,0,0,1-45.32-3.35c-7.31-.92-14.6-2.28-22-3.61s-15.18-2.89-23.14-4.08-16.13-1.94-24.11-2.37c-4,0-7.95-.2-11.89-.18s-7.84.15-11.56.38a671.32,671.32,0,0,0-82.88,10.18c-25.3,4.34-48.49,8.21-69.92,10.76a372.29,372.29,0,0,1-57.52,2.6c-17.12-.41-31.95-1.56-44.07-2.69s-21.51-2.37-27.87-3.24l-9.58-1.42s3.18,1.16,9.34,3.13,15.27,4.68,27.18,7.75,26.58,6.42,44,9.22a341.77,341.77,0,0,0,60,4.83c22.09,0,46.26-1.47,72-3.47s52.28-4,80.16-3.5c3.5,0,6.8.24,10.21.32s6.74.52,10.12.78c6.71.75,13.39,1.71,20.24,3.13s14.08,3.15,21.75,4.91,15.61,3.53,23.8,4.86a378.41,378.41,0,0,0,49.94,5.06c16.8.64,33.63.66,51-.2a412,412,0,0,0,51.12-5.93c16.55-2.89,31.44-6,46.27-8s29.44-3,44.07-3.59,28.92-.75,42.57,0a282.77,282.77,0,0,1,39.67,4.75,318.87,318.87,0,0,0,41.06,5.29,377.35,377.35,0,0,0,38.35,0c12.14-.49,23.77-1.45,34.7-2.58a513.35,513.35,0,0,0,59-10.17c17-4,31.41-7.81,43.38-10.44s21.17-4.11,27.53-5Z"/><path id="Path_243" data-name="Path 243" class="cls-2" d="M3631.1,1125a10.39,10.39,0,0,1-2,1,46.87,46.87,0,0,1-6.36,1.88,176.45,176.45,0,0,1-25.3,3.12,787.71,787.71,0,0,1-93.84-1.36c-9.86-.66-20.24-1.62-30.85-2.89s-21.87-2.72-33.55-4.16-23.83-2.9-36.38-3.82-25.47-1.76-38.72-2.17c-26.48-.9-54.27-1.19-83.22,0-14.46.61-29.18,1.67-43.92,2.89s-29.59,2.55-44.6,3.44c-29.95,1.91-59.45,2.32-87.9,2.43s-55.78-.6-81.66-2.89c-12.93-1.13-25.77-2.57-38.43-3.41s-25-1.1-36.79-1c-23.65.26-45.51,1.59-65.41,3.06-39.84,2.89-71.88,6.74-94,9.46s-34.32,4.57-34.32,4.57l34.7-1.42c22.24-.81,54.45-2,94.19-2.52,19.83-.2,41.58-.23,64.74.67,11.57.52,23.45,1.33,35.66,2.69s24.81,3.27,38,4.88a796.14,796.14,0,0,0,83.26,5.3c28.91.43,58.67.34,89.32-1.59,15.33-.93,30.42-2.35,45.11-3.73s28.92-2.64,43.18-3.5c28.25-1.74,55.75-2.26,81.89-2.32q19.6,0,38.14.64c12.35.4,24.29,1.19,35.91,2s23,1.76,33.89,2.37,21.49.93,31.49,1a679.33,679.33,0,0,0,94.56-5.61,170.6,170.6,0,0,0,25.2-5.44,48.69,48.69,0,0,0,6.24-2.51A11.15,11.15,0,0,0,3631.1,1125Z"/><path id="Path_244" data-name="Path 244" class="cls-2" d="M3485.9,1170.29l-23.3,1.36c-15,.81-36.7,2-63.42,2.89-13.36.41-28,.75-43.38.32s-31.81-2.17-49.36-4.34c-34.87-4.45-74.08-10.32-115.84-10.35-10.41,0-20.76.2-31,1a295.85,295.85,0,0,0-30.1,3.85c-9.69,1.7-18.83,3.61-27.7,4.94s-17.64,2.26-26.29,2.89c-17.35,1.19-34,1.3-49.71,1.25s-30.33-.38-43.69-.75c-26.78-.73-48.5-1.6-63.62-2.17l-23.34-1s8.16,1.59,23,4.08,36.35,5.78,63.1,9.14c13.36,1.65,28,3.21,43.87,4.48s32.85,2.26,51,2c9.08-.18,18.44-.64,28-1.74s19-2.69,28.37-4a365.56,365.56,0,0,1,57.83-3.76c40.22,0,78.57,4.48,114.22,7.11a434.58,434.58,0,0,0,51.16,1.19c16.08-.78,30.77-2.4,44.15-4.08,26.78-3.41,48.21-7.17,63-9.89S3485.9,1170.29,3485.9,1170.29Z"/><path id="Path_245" data-name="Path 245" class="cls-2" d="M3158.53,1216.82s-4.65-.63-13.1-1.38-20.73-1.45-35.88-1.68c-30.34-.58-71.92,1.27-117.26,2.69s-86.58.93-116.68.75l-48.84-.37s18.07,5.17,47.91,10.47a586.83,586.83,0,0,0,118.19,9.36c46.47-1.44,87.64-8.38,117.37-12.81,14.86-2.28,26.89-4.13,35.28-5.26Z"/><path id="Path_246" data-name="Path 246" class="cls-2" d="M3557.1,1210.77s-4.63-.54-13.07-1.21-20.65-1.27-35.77-1.19-33.08,1-52.78,2.06-41.09,1.94-63.61,1.76c-45.4-.38-86.9-.26-116.92.58s-48.66,1.85-48.66,1.85,18.39,3.32,48.23,7a1043.28,1043.28,0,0,0,117.29,8.29,453.32,453.32,0,0,0,65.12-4.59c19.78-2.89,37.3-5.79,52.05-8.1s26.78-3.88,35.14-4.92Z"/><path id="Path_247" data-name="Path 247" class="cls-2" d="M3471.68,1276.39s-32.3-2.52-84.56-5.06c-26-1.27-57.23-2.52-91.76-3.47-17.35-.46-35.3-1-54.27-1.07s-38.64.4-58.71,1.7a1826,1826,0,0,1-202.85,5.79c-26-.75-47.13-2-61.73-2.89s-22.65-1.71-22.65-1.71,7.87,2,22.24,4.86,35.28,6.59,61.33,9.89a994.66,994.66,0,0,0,205,4.22q29.58-1.9,57.57-2.52l54.11-1.24c34.52-.93,65.64-2.2,91.75-3.47C3439.38,1278.93,3471.68,1276.39,3471.68,1276.39Z"/><path id="Path_248" data-name="Path 248" class="cls-2" d="M3373.45,1324.22l-14.64.52c-9.37.32-23,.66-39.55.26-8.3-.23-17.36-.66-27.07-1.39s-20.24-1.67-31.46-2.28c-22.82-1.39-47.6.72-72.76,2.46-12.63.89-24.87,1.59-36.69,2s-23.14.18-34.18,0l-58.73-1.15c-33.58-.58-54.48-.41-54.48-.41s20.24,4.86,53.52,10.5c16.63,2.89,36.44,5.78,58.68,8.12,11.1,1.1,22.93,2.12,35.33,2.29s25-.23,37.94-1.13c25.85-1.82,49.62-5.06,71.2-5.58,10.9-.35,21.48-.49,31.46-1s19.31-1.28,27.76-2.32a368,368,0,0,0,39.5-7.2c4.6-1,8.12-2.05,10.55-2.66Z"/></g></g><g id="CHAMBRES_TOUT_CONFORT" data-name="CHAMBRES TOUT CONFORT" class="cls-3"><g class="cls-3"><path class="cls-2" d="M2135.32,2444.68q-1.76-16.45-11.47-25.55t-24.93-9.1a39.42,39.42,0,0,0-17.42,3.94,42.55,42.55,0,0,0-14.26,11.28,54.78,54.78,0,0,0-9.62,17.68,72,72,0,0,0-3.5,23.27q0,16.46,6.3,29.05a49,49,0,0,0,17,19.6,42.16,42.16,0,0,0,23.63,7,52.37,52.37,0,0,0,22.4-5.16,45.48,45.48,0,0,0,18-15l4.55,3.67a61.54,61.54,0,0,1-16.27,15.93,55.93,55.93,0,0,1-17.42,7.61,70.48,70.48,0,0,1-15.83,2,60.07,60.07,0,0,1-24.07-4.72,56.13,56.13,0,0,1-18.9-13.21,59.39,59.39,0,0,1-12.25-19.78,68.11,68.11,0,0,1-4.28-24.41,78.54,78.54,0,0,1,3.76-24.15A66.08,66.08,0,0,1,2052,2423.5a54.4,54.4,0,0,1,19-15.05q11.46-5.6,26.69-5.6a64.23,64.23,0,0,1,18.55,2.63,61.7,61.7,0,0,1,16.8,8.05l-.87-9.45h9.45v40.6Z"/><path class="cls-2" d="M2160.86,2528.15v-5.77q6.66-.35,9.1-3.06a11.84,11.84,0,0,0,2.72-7.53c.17-3.21.26-6.85.26-10.94v-75.6q0-3.49.17-6.73t.35-5.87l-6.3.35-6.3.35v-7.7h39.38v5.78q-6.48.18-9,3a11.75,11.75,0,0,0-2.8,7.53q-.27,4.72-.27,11V2462h62.66v-36.75c0-2.33,0-4.57.17-6.73s.23-4.12.35-5.87l-6.3.35-6.3.35v-7.7h39.37v5.78c-4.31.12-7.32,1.11-9,3a11.86,11.86,0,0,0-2.8,7.53q-.26,4.72-.26,11v74.38q0,4.73-.09,8.14a45,45,0,0,1-.44,5.68l6.31-.35,6.29-.35v7.7h-39.37v-5.77q6.65-.35,9.1-3.06a11.84,11.84,0,0,0,2.71-7.53c.18-3.21.27-6.85.27-10.94V2469l-62.66.7v37.63q0,4.73-.08,8.14a47,47,0,0,1-.44,5.68l6.3-.35,6.3-.35v7.7Z"/><path class="cls-2" d="M2286.69,2528.15v-5.77q5.25,0,8-2.8a21.47,21.47,0,0,0,4.64-7.7q1.83-4.9,4.28-11.38l36.05-98.17h4.2l39,99.57q1.39,3.67,3.15,9.45a26.93,26.93,0,0,1,1.4,9.8l6-.35,5.95-.35v7.7h-40.07v-5.77c4.43-.12,7.34-1.11,8.75-3a8.72,8.72,0,0,0,1.57-6.65,31.18,31.18,0,0,0-1.75-7l-6.13-16.45-45.5,1-6.12,18.73q-1.23,4.2-2.19,6.65t-2.19,5.42l6.92-.35,6.73-.35v7.7Zm32.2-45.32h40.43l-12.43-33.43q-1.93-5.42-3.94-10.76t-3.94-10.76h-.35q-1.74,4.9-3.58,9.8t-3.76,10Z"/><path class="cls-2" d="M2472.89,2529.9q-7.71-17.49-15.58-34.91t-15.4-35.26q-2.44-5.59-4.81-11.29t-4.55-11.46q-2.19-5.78-4.46-11.55c0,1.28,0,2.57-.09,3.85s-.09,2.57-.09,3.85q-.16,6.3-.43,15.14t-.62,18.9q-.34,10.07-.52,20.12t-.35,19c-.12,2.57-.21,5.13-.26,7.7s-.21,5-.44,7.17l6.56-.35,6.56-.35v7.7H2405v-5.77c3.61-.12,6.27-.9,8-2.36a10,10,0,0,0,3.24-5.87,55.54,55.54,0,0,0,.87-7.87l3.33-79.8c.11-2.33.2-4.67.26-7s.15-4.61.26-6.83q-3.15.18-6.3.27c-2.1.06-4.2.14-6.3.26v-7.53h26.78l30.1,69.48q2.26,5.25,4.46,10.5t4.55,10.5q2.37,5.25,4.64,10.67h.35q1.92-4.73,4.55-11.28t4.37-11.29q7.71-19.24,16-38.59t16.36-40h25.9v5.78a12,12,0,0,0-7.18,1.66,10.34,10.34,0,0,0-4,6,35.81,35.81,0,0,0-.88,11.37l4.55,79.63a48,48,0,0,1,.35,5.77V2521c2.1-.12,4.23-.2,6.39-.26s4.29-.15,6.39-.27v7.7h-39.2v-5.77c3.61-.12,6.3-1,8.05-2.63a11.26,11.26,0,0,0,3.24-7,62.72,62.72,0,0,0,.26-11.2l-3.5-57.75c-.12-1.86-.24-3.73-.35-5.6s-.24-3.73-.35-5.6-.24-3.73-.35-5.6c-.35.82-.73,1.7-1.14,2.63s-.79,1.92-1.14,3l-39.37,97.3Z"/><path class="cls-2" d="M2567.56,2528.15v-5.77q6.66-.18,9.1-3.06a12.89,12.89,0,0,0,2.72-7.88q.26-5,.26-11.46v-73.5c0-3.15.05-5.86.17-8.14s.24-4.17.35-5.69l-6.3.35-6.3.35v-7.7q9.63-.17,19.34-.26t20.21-.09q20.31,0,31.77,7.18t11.11,22.75a22.2,22.2,0,0,1-3.24,11.2,30.48,30.48,0,0,1-9.62,9.89,41.87,41.87,0,0,1-16,6v.35q19.24,0,29,8.84a28.76,28.76,0,0,1,9.8,22.31,31.13,31.13,0,0,1-5.42,18.38,34.83,34.83,0,0,1-14.7,11.81,51.8,51.8,0,0,1-21.18,4.11Zm26.78-7q2.79.18,6.74.27c2.62.06,5.07.08,7.35.08h4.46q13.47,0,21.79-6.73t8.31-19.87q0-10.67-4.2-16.62a22.48,22.48,0,0,0-11-8.4,43.81,43.81,0,0,0-14.87-2.45q-5.25,0-9.54.09t-8.49.43v39.55c0,3.15,0,5.84-.08,8.05A46.37,46.37,0,0,1,2594.34,2521.15Zm.52-60,12.78-.35q10-.18,15.75-4.11a22.57,22.57,0,0,0,8.31-9.89,29.29,29.29,0,0,0,2.36-12.43q-.18-9.45-4.28-14.35a20.54,20.54,0,0,0-10.07-6.65,41.58,41.58,0,0,0-11.72-1.75q-5.77,0-8.58,1.58a7.72,7.72,0,0,0-3.67,5.25,45.5,45.5,0,0,0-.88,10.15Z"/><path class="cls-2" d="M2674.84,2528.15v-5.77q6.64-.35,9.1-3.06a11.84,11.84,0,0,0,2.71-7.53c.18-3.21.26-6.85.26-10.94v-75.6q0-3.49.18-6.73t.35-5.87l-6.3.35-6.3.35v-7.7l19.86-.35q10.07-.16,20.21.18,17,.18,27.39,3.94t15.31,10.67a28.13,28.13,0,0,1,4.9,16.71,36.25,36.25,0,0,1-2.53,13.92,29.92,29.92,0,0,1-9.8,12.68q-7.09,5.61-20.39,8.4a24.51,24.51,0,0,1,6.12,6.3q2.63,3.86,6,8.93l11.9,18.72q3,4.73,5.78,8.49a22.18,22.18,0,0,0,6.47,6,17.52,17.52,0,0,0,9.1,2.19v5.77h-22.05a63,63,0,0,1-8.48-9.1q-3.42-4.55-7.09-10.32L2725.76,2490q-2.27-3.67-5.16-8.48a35.4,35.4,0,0,0-6.56-8.14c-1.87.12-3.82.17-5.86.17s-4.06-.05-6-.17v33.95q0,4.73-.09,8.14a45,45,0,0,1-.44,5.68c1.4-.11,2.8-.2,4.2-.26s2.8-.14,4.2-.26,2.8-.18,4.2-.18v7.7ZM2713,2466.9a52,52,0,0,0,16.89-3.15,24,24,0,0,0,11.46-8.92q4.2-6.12,4.2-16.1a33.54,33.54,0,0,0-1.84-11.64,19.81,19.81,0,0,0-5.69-8.31,25,25,0,0,0-9.8-5,52.24,52.24,0,0,0-14-1.66c-4.31,0-7.32.87-9,2.62a11,11,0,0,0-2.8,7.27q-.26,4.64-.26,10.93v33.6l5.34.35A42.14,42.14,0,0,0,2713,2466.9Z"/><path class="cls-2" d="M2845.64,2482.83q0-7.7-2.1-11a9,9,0,0,0-6.65-4,63.5,63.5,0,0,0-12.08-.35L2812,2468V2508q0,4.72-.09,8a46.54,46.54,0,0,1-.44,5.6l33.43-.53a36.25,36.25,0,0,0,13.3-2.53,17.54,17.54,0,0,0,8.75-8.32q3.15-5.94,3.15-16.27h6l-1.05,34.12h-90.3v-5.77q6.65-.35,9.1-3.06a11.89,11.89,0,0,0,2.71-7.53c.17-3.21.26-6.85.26-10.94v-75.6q0-3.49.18-6.73t.35-5.87l-6.3.35-6.3.35v-7.7h84.17l.88,30.63H2864q0-10.32-3.15-15.66a15.64,15.64,0,0,0-8.49-7.18,33.92,33.92,0,0,0-12-1.66l-15,.35c-4.32.12-7.41.93-9.28,2.45a10,10,0,0,0-3.41,6.74A88.57,88.57,0,0,0,2812,2433v28l32.9.18-1.23-15.05h7.7v36.75Z"/><path class="cls-2" d="M2962.36,2442.75a44,44,0,0,0-4-15.92,30.63,30.63,0,0,0-10.15-12.25q-6.66-4.73-17-4.73-10.85,0-16.62,6.13a20.25,20.25,0,0,0-5.78,14.35,18.52,18.52,0,0,0,4.2,12.34,39,39,0,0,0,10.94,8.75q6.74,3.76,14.26,7.26,6.64,3,13.3,6.39a70.63,70.63,0,0,1,12.08,7.78,33.88,33.88,0,0,1,8.66,10.42,30.09,30.09,0,0,1,3.24,14.43,31.11,31.11,0,0,1-4.82,17.15,32.38,32.38,0,0,1-13.91,11.82q-9.11,4.27-22.22,4.28a62.46,62.46,0,0,1-16.28-2.27,49.31,49.31,0,0,1-14.87-6.65l.87,7.52h-9.1l-1-37.27h6.83q.87,15.41,10.67,23.36t23.63,8a31,31,0,0,0,12.6-2.53,21.36,21.36,0,0,0,9.18-7.44,22.52,22.52,0,0,0-.78-25,38.26,38.26,0,0,0-10.85-9.1q-6.66-3.84-14.18-7.35-6.64-3-13.12-6.3a68.93,68.93,0,0,1-11.82-7.61,33.61,33.61,0,0,1-8.57-10.24,29.6,29.6,0,0,1-3.24-14.35,34.25,34.25,0,0,1,1.58-9.8,29,29,0,0,1,5.51-10.06,28.63,28.63,0,0,1,10.85-7.87q6.92-3.06,17.59-3.07a70.35,70.35,0,0,1,15,1.84,41.15,41.15,0,0,1,15.49,7.09l-.7-7.53h8.92v38.5Z"/><path class="cls-2" d="M3130.53,2442.58a69,69,0,0,0-2.1-17.15,18,18,0,0,0-6.74-10.24q-4.82-3.41-13.91-3.24h-14.87l-.18,95.38q0,4.73-.09,8.14a47.26,47.26,0,0,1-.43,5.68l7.26-.35,7.26-.35v7.7h-41.12v-5.77q6.64-.35,9-3.15a12.53,12.53,0,0,0,2.62-7.61q.27-4.82.27-10.77l.17-88.72-18,.17q-11,0-15.58,7.35t-4.55,22.93h-6.47l1.05-36.93h102l1,36.93Z"/><path class="cls-2" d="M3211.56,2531q-16.64,0-28.53-5.6a53.09,53.09,0,0,1-19.34-15,62.53,62.53,0,0,1-10.93-20.74,76.73,76.73,0,0,1-3.5-22.75,71.77,71.77,0,0,1,3.67-22.31,64.78,64.78,0,0,1,11.29-20.74,57.05,57.05,0,0,1,19.07-15.22q11.46-5.77,26.87-5.78,16.1,0,27.82,5.78a56,56,0,0,1,19.34,15.31,67.63,67.63,0,0,1,11.37,20.74,69.42,69.42,0,0,1,3.77,22.22,71.23,71.23,0,0,1-3.68,22.14,65.74,65.74,0,0,1-11.29,20.83,56.81,56.81,0,0,1-19,15.31Q3227.13,2531,3211.56,2531Zm.35-7.17a37.24,37.24,0,0,0,18.9-4.64,40.71,40.71,0,0,0,13.38-12.42,58.89,58.89,0,0,0,8-17.33,69.67,69.67,0,0,0,2.72-19.16,80,80,0,0,0-3-21.53,68.2,68.2,0,0,0-8.75-19.42,46.94,46.94,0,0,0-14.26-14.09,35.56,35.56,0,0,0-19.34-5.34,37.17,37.17,0,0,0-19,4.73,41.32,41.32,0,0,0-13.47,12.51,58.89,58.89,0,0,0-8.05,17.33,70.27,70.27,0,0,0-2.71,19.33,80.37,80.37,0,0,0,2.71,20.13,71.3,71.3,0,0,0,8.31,19.6,46.06,46.06,0,0,0,14.18,14.7Q3200.18,2523.77,3211.91,2523.78Z"/><path class="cls-2" d="M3323.91,2411.43c-3.85,0-6.63.82-8.32,2.45a10,10,0,0,0-3.06,5.69,36,36,0,0,0-.52,5.68v44.1a133.33,133.33,0,0,0,1.31,19,53.56,53.56,0,0,0,5,16.54,28.15,28.15,0,0,0,10.93,11.72q7.26,4.38,19,4.38,12.6,0,20.56-5.95a34.41,34.41,0,0,0,11.73-16.45,74.31,74.31,0,0,0,3.94-24.15l.52-49.18q0-3.49.18-6.73t.35-5.87l-6.22.35-6.21.35v-7.7h32.55v5.78q-6.65.18-9.19,3a11.86,11.86,0,0,0-2.8,7.53q-.26,4.72-.26,11l-.35,40.6a93.83,93.83,0,0,1-2.45,21.7,54.45,54.45,0,0,1-8,18.38,38.78,38.78,0,0,1-14.53,12.69q-9,4.63-22.13,4.63-14,0-23.54-3.67a33.31,33.31,0,0,1-15.23-11.38q-5.68-7.7-8.13-19.42a138.3,138.3,0,0,1-2.45-28V2433c0-3,.08-6.62.26-10.76s.32-7.32.44-9.54q-3.15.18-6.3.27c-2.1.06-4.2.14-6.3.26v-7.53h39.2Z"/><path class="cls-2" d="M3512.21,2442.58a69,69,0,0,0-2.1-17.15,18.06,18.06,0,0,0-6.74-10.24q-4.82-3.41-13.91-3.24h-14.88l-.17,95.38q0,4.73-.09,8.14a47,47,0,0,1-.44,5.68l7.26-.35,7.27-.35v7.7h-41.13v-5.77q6.64-.35,9-3.15a12.54,12.54,0,0,0,2.63-7.61q.26-4.82.26-10.77l.18-88.72-18,.17q-11,0-15.57,7.35t-4.55,22.93h-6.48l1.05-36.93h102l1.05,36.93Z"/><path class="cls-2" d="M3675.3,2444.68q-1.74-16.45-11.46-25.55t-24.94-9.1a39.41,39.41,0,0,0-17.41,3.94,42.55,42.55,0,0,0-14.26,11.28,54.8,54.8,0,0,0-9.63,17.68,72.32,72.32,0,0,0-3.5,23.27q0,16.46,6.3,29.05a49,49,0,0,0,17,19.6,42.13,42.13,0,0,0,23.62,7,52.33,52.33,0,0,0,22.4-5.16,45.51,45.51,0,0,0,18-15l4.55,3.67a61.42,61.42,0,0,1-16.28,15.93,55.78,55.78,0,0,1-17.41,7.61,70.49,70.49,0,0,1-15.84,2,60,60,0,0,1-24.06-4.72,56.13,56.13,0,0,1-18.9-13.21,59.39,59.39,0,0,1-12.25-19.78,68.12,68.12,0,0,1-4.29-24.41,78.55,78.55,0,0,1,3.77-24.15A66.06,66.06,0,0,1,3592,2423.5a54.53,54.53,0,0,1,19-15.05q11.46-5.6,26.69-5.6a64.28,64.28,0,0,1,18.55,2.63,61.7,61.7,0,0,1,16.8,8.05l-.88-9.45h9.45v40.6Z"/><path class="cls-2" d="M3761.58,2531q-16.64,0-28.53-5.6a53.09,53.09,0,0,1-19.34-15,62.53,62.53,0,0,1-10.93-20.74,76.73,76.73,0,0,1-3.5-22.75,71.77,71.77,0,0,1,3.67-22.31,64.78,64.78,0,0,1,11.29-20.74,57.05,57.05,0,0,1,19.07-15.22q11.46-5.77,26.87-5.78,16.09,0,27.82,5.78a56,56,0,0,1,19.34,15.31,67.63,67.63,0,0,1,11.37,20.74,69.42,69.42,0,0,1,3.77,22.22,71.23,71.23,0,0,1-3.68,22.14,65.74,65.74,0,0,1-11.29,20.83,56.81,56.81,0,0,1-19,15.31Q3777.15,2531,3761.58,2531Zm.35-7.17a37.24,37.24,0,0,0,18.9-4.64,40.71,40.71,0,0,0,13.38-12.42,58.89,58.89,0,0,0,8.05-17.33,69.67,69.67,0,0,0,2.72-19.16,80,80,0,0,0-3-21.53,68.2,68.2,0,0,0-8.75-19.42,46.94,46.94,0,0,0-14.26-14.09,35.56,35.56,0,0,0-19.34-5.34,37.17,37.17,0,0,0-19,4.73,41.32,41.32,0,0,0-13.47,12.51,58.89,58.89,0,0,0-8.05,17.33,70.27,70.27,0,0,0-2.71,19.33,80.37,80.37,0,0,0,2.71,20.13,71.3,71.3,0,0,0,8.31,19.6,46.06,46.06,0,0,0,14.18,14.7Q3750.2,2523.77,3761.93,2523.78Z"/><path class="cls-2" d="M3934,2531l-69.82-93.8q-1.58-2.1-3.06-4.11l-3.07-4.11h-.17l.52,74.9v8.75c0,2.92-.11,5.77-.35,8.57l6.3-.35,6.3-.35v7.7h-32v-5.77q5.41,0,7.79-2.36a11.15,11.15,0,0,0,3.06-5.6,28.52,28.52,0,0,0,.7-5.87l.17-84.17v-11.73c-1.86.12-3.79.24-5.77.35l-6,.35v-7.7h20.82L3925,2493.5q2.26,3,4.46,5.95t4.46,6h.18l.17-80.15q0-3.49.18-6.73t.35-5.87l-6.3.35-6.3.35v-7.7h32.2v5.78c-4.32.12-7.29,1.11-8.93,3a11.72,11.72,0,0,0-2.62,7.53q-.18,4.72-.18,11l-.35,98Z"/><path class="cls-2" d="M3971.58,2528.15v-5.77q6.65-.35,9.1-3.06a11.89,11.89,0,0,0,2.71-7.53c.17-3.21.26-6.85.26-10.94v-75.6q0-3.49.18-6.73t.35-5.87l-6.3.35-6.3.35v-7.7h81.2l.87,30.63h-5.77q0-10.32-3.33-15.66a16.37,16.37,0,0,0-8.75-7.18,34.63,34.63,0,0,0-12.07-1.66l-12.78.35q-6.48.18-8.92,3.06a12.85,12.85,0,0,0-2.8,7.61c-.24,3.15-.35,6.77-.35,10.85v30.1l30.45.18-1.23-15.23h7.7v36.93h-5.6q0-7.87-2.19-11.2a9.31,9.31,0,0,0-6.73-4,62.76,62.76,0,0,0-11.9-.35l-10.5.53v36.75q0,4.73-.09,8.14a47,47,0,0,1-.44,5.68c2-.11,4-.2,6-.26s4-.14,5.95-.26,4-.18,5.95-.18v7.7Z"/><path class="cls-2" d="M4127,2531q-16.63,0-28.53-5.6a53.09,53.09,0,0,1-19.34-15,62.53,62.53,0,0,1-10.93-20.74,76.73,76.73,0,0,1-3.5-22.75,71.77,71.77,0,0,1,3.67-22.31,64.78,64.78,0,0,1,11.29-20.74,57.05,57.05,0,0,1,19.07-15.22q11.46-5.77,26.87-5.78,16.1,0,27.82,5.78a56,56,0,0,1,19.34,15.31,67.63,67.63,0,0,1,11.37,20.74,69.42,69.42,0,0,1,3.77,22.22,71.23,71.23,0,0,1-3.68,22.14,65.74,65.74,0,0,1-11.29,20.83,56.81,56.81,0,0,1-19,15.31Q4142.55,2531,4127,2531Zm.35-7.17a37.24,37.24,0,0,0,18.9-4.64,40.71,40.71,0,0,0,13.38-12.42,58.89,58.89,0,0,0,8.05-17.33,69.67,69.67,0,0,0,2.72-19.16,80,80,0,0,0-3-21.53,68.2,68.2,0,0,0-8.75-19.42,46.94,46.94,0,0,0-14.26-14.09,35.56,35.56,0,0,0-19.34-5.34,37.17,37.17,0,0,0-19,4.73,41.32,41.32,0,0,0-13.47,12.51,58.89,58.89,0,0,0-8.05,17.33,70.27,70.27,0,0,0-2.71,19.33,80.37,80.37,0,0,0,2.71,20.13,71.3,71.3,0,0,0,8.31,19.6,46.06,46.06,0,0,0,14.18,14.7Q4115.59,2523.77,4127.33,2523.78Z"/><path class="cls-2" d="M4203.63,2528.15v-5.77q6.65-.35,9.1-3.06a11.84,11.84,0,0,0,2.71-7.53c.17-3.21.26-6.85.26-10.94v-75.6q0-3.49.18-6.73t.35-5.87l-6.3.35-6.3.35v-7.7l19.86-.35q10.07-.16,20.21.18,17,.18,27.39,3.94t15.31,10.67a28.13,28.13,0,0,1,4.9,16.71,36.25,36.25,0,0,1-2.53,13.92,30,30,0,0,1-9.81,12.68q-7.08,5.61-20.38,8.4a24.51,24.51,0,0,1,6.12,6.3q2.63,3.86,5.95,8.93l11.9,18.72q3,4.73,5.78,8.49a22.18,22.18,0,0,0,6.47,6,17.5,17.5,0,0,0,9.1,2.19v5.77h-22a63.68,63.68,0,0,1-8.49-9.1q-3.4-4.55-7.08-10.32L4254.55,2490c-1.52-2.45-3.23-5.27-5.16-8.48a35.66,35.66,0,0,0-6.56-8.14c-1.87.12-3.83.17-5.87.17s-4.05-.05-6-.17v33.95q0,4.73-.09,8.14a47,47,0,0,1-.44,5.68c1.4-.11,2.8-.2,4.2-.26s2.8-.14,4.2-.26,2.8-.18,4.2-.18v7.7Zm38.15-61.25a51.93,51.93,0,0,0,16.88-3.15,24,24,0,0,0,11.47-8.92q4.2-6.12,4.2-16.1a33.77,33.77,0,0,0-1.84-11.64,19.81,19.81,0,0,0-5.69-8.31,25,25,0,0,0-9.8-5,52.29,52.29,0,0,0-14-1.66c-4.31,0-7.32.87-9,2.62a11,11,0,0,0-2.8,7.27q-.25,4.64-.26,10.93v33.6l5.34.35A42.14,42.14,0,0,0,4241.78,2466.9Z"/><path class="cls-2" d="M4405.23,2442.58a69,69,0,0,0-2.1-17.15,18.06,18.06,0,0,0-6.74-10.24q-4.81-3.41-13.91-3.24H4367.6l-.17,95.38q0,4.73-.09,8.14a47,47,0,0,1-.44,5.68l7.26-.35,7.27-.35v7.7H4340.3v-5.77q6.64-.35,9-3.15a12.54,12.54,0,0,0,2.63-7.61q.26-4.82.26-10.77l.18-88.72-18,.17q-11,0-15.57,7.35t-4.55,22.93h-6.48l1.05-36.93h102l1.05,36.93Z"/></g></g><path id="Path_251" data-name="Path 251" class="cls-4" d="M1457.15,1601.22q48.49-108,85.5-163.5t69.5-67q32.49-11.51,44-11.5t11.5,3q0,3-13,9.5t-44.5,52.5q-31.5,46-79.5,141a1549.76,1549.76,0,0,0-84,201q61,0,77.5-6t20-2q3.49,4-9.5,13-33,23-97,27-1,2-16,48-50,155-50,217,0,35,12.5,49t26.5,14q14,0,31-12,57-42,125-181,8-17,15.5-14t-.5,21q-37,79-61.5,116a438.06,438.06,0,0,1-55.5,68q-41,39-82,39-46,0-64-38-9-18-9-33t.5-31.5q.49-16.5,3.5-43t14.5-66q11.49-39.51,18-60t19.5-55.5q13-35,14-38-43,0-339-13-61,182-192,326a588.87,588.87,0,0,1-149,119q-114,63-240,63-53,0-118-15.5t-123-59q-58-43.5-82.5-117.5t-1.5-164q12-46,53.5-86t68.5-41q10,0,12,2.5t-1.5,6a25.14,25.14,0,0,1-8.5,5.5q-30,13-62,57-42,58-42,135,0,120,116,179,70,35,164,35a354.64,354.64,0,0,0,77-8q339-76,477-439a117.54,117.54,0,0,0-50.5,11.5q-24.51,11.49-32,11.5t-8.5-6q0-17,24-32.5t42-17.5h39q64-160,146-324-26,3-74,7t-78,7q-30,3-74,10t-73,16.5q-29,9.49-64.5,26.5t-59.5,39q-57,54-81,132a226.7,226.7,0,0,0-10,68q0,36,26,70t69,34q85,0,121-98,17-46,17-64.5t-6.5-28q-6.51-9.51,3.5-11.5,7-1,12,8a132.09,132.09,0,0,1,12,56q0,30-20,65-34,62-92,83a165.62,165.62,0,0,1-56,10q-28,0-56-12-53-23-78-78-16-33-16-63t9.5-68.5q9.5-38.51,37.5-78.5a219.46,219.46,0,0,1,70-64.5,567.49,567.49,0,0,1,84-40.5q42-16,99.5-24t100-12q42.5-4,102.5-7t89-6q11-19,33.5-46.5t38.5-32q16-4.5,25-4.5,37,0,37,31.5t-41,52.5q-41,21-77,21-27,52-76.5,185.5t-52.5,140.5q75,0,193.5,8.5t145.5,8.5Q1408.65,1709.22,1457.15,1601.22Zm-210.5-251q-12,0-50,49,65-10,64-35-1-11-11-13A4,4,0,0,0,1246.65,1350.22Zm626,501q-18,18-51,81.5t-39.5,95q-6.51,31.5-6.5,51t15,19.5q19,0,47-35,41-51,81-133,4-9,9-10,8-3,8,6,0,5-3,12-92,186-155,186-29,0-47-28-9-15-9-40t10-61q-80,129-138,129a46.43,46.43,0,0,1-29-10q-30-21-30-72,0-98,85-199,48-56,118-73a141.22,141.22,0,0,1,36-5q46,0,78,32,10,11,6,21t-17,8q-11-36-48-36-43,0-106,68-36,40-67,94-39,65-39,104t25,39q60,0,157-184,19-37,32-50.5t33-13.5q4,0,20.5,3T1872.65,1851.22Zm-116,581q-43,0-65.5-26t-22.5-53q0-27,16.5-52a174.87,174.87,0,0,1,41-43.5,381.09,381.09,0,0,1,47.5-31q23-12.51,64.5-28t64.5-23q23-7.5,72-22.5t65-20q18-58,18-88,0-52-29-52a32.65,32.65,0,0,0-8,1q-48,25-57,18a10,10,0,0,1-4-10q1-6,9-8,68-21,112-88,13-20,13-37t-14-33q-14-16-30-16-50,0-83,57-28,47-53,100-6,14-13,9.5t1-20.5q53-104,59-114,45-82,123-82,35,0,53,26,10,14,10,41.5t-26.5,67q-26.51,39.49-71.5,66.5h2q65,0,67,65a241.92,241.92,0,0,1-11,73q76-15,154-179,4-9,10-10,7-3,7,6,0,11-26,58t-49,78q-42,60-102,72-39,107-115.5,183.5t-182.5,107.5Q1777.65,2432.21,1756.65,2432.22Zm-47-99a128.67,128.67,0,0,0-6,39q0,20,15,29t28,9q48,0,105.5-36.5t105.5-92.5a406.2,406.2,0,0,0,73-123q-21,7-66,20t-71,21q-70,22-111,46Q1728.65,2276.21,1709.65,2333.22Zm854-482q-18,18-51,81.5t-39.5,95q-6.51,31.5-6.5,51t15,19.5q19,0,47-35,41-51,81-133,4-9,9-10,8-3,8,6,0,5-3,12-92,186-155,186-29,0-47-28-9-15-9-40t10-61q-80,129-138,129a46.43,46.43,0,0,1-29-10q-30-21-30-72,0-98,85-199,48-56,118-73a141.22,141.22,0,0,1,36-5q46,0,78,32,10,11,6,21t-17,8q-11-36-48-36-43,0-106,68-36,40-67,94-39,65-39,104t25,39q60,0,157-184,19-37,32-50.5t33-13.5q4,0,20.5,3T2563.65,1851.22Zm312-78-5,18q-51,159-94,232-63,106-132,106-56,0-56-54,0-41,30-127-10,16-15.5,10.5t-2.5-13.5l18-34q19-39,19-78t-16-46q60-10,70-9.5t12.5,8.5a60.27,60.27,0,0,1,2.5,18q0,61-31.5,144t-31.5,111.5q0,28.5,9,33a40,40,0,0,0,18,4.5q26,0,59-42t66-124q-14-32-14-56.5t6-43.5q18-57,57-71a42.84,42.84,0,0,1,15-3Q2875.64,1757.22,2875.65,1773.22Zm300,78q-18,18-51,81.5t-39.5,95q-6.51,31.5-6.5,51t15,19.5q19,0,47-35,41-51,81-133,4-9,9-10,8-3,8,6,0,5-3,12-92,186-155,186-29,0-47-28-9-15-9-40t10-61q-80,129-138,129a46.43,46.43,0,0,1-29-10q-30-21-30-72,0-98,85-199,48-56,118-73a141.22,141.22,0,0,1,36-5q46,0,78,32,10,11,6,21t-17,8q-11-36-48-36-43,0-106,68-36,40-67,94-39,65-39,104t25,39q60,0,157-184,19-37,32-50.5t33-13.5q4,0,20.5,3T3175.65,1851.22Zm348-57q-123,216-123,282,0,26,19,26,51,0,137-173,6-14,12-11t6,8q0,5-4,12-53,107-89.5,147.5t-73,40.5q-36.51,0-55.5-28-10-13-10-35.5t10-54.5q10-32,55-104,11-18,11-28.5t-17-10.5q-17,0-65,45-72,66-139,198-6,10-13.5,12.5t-29.5,3.5q-22,1-29,5,16-32,63-131,84-175,110-200,12-12,33-12,4,0,20.5,3t24.5,1q-37,20-121,188,47-58,85.5-92.5t92.5-64q54-29.51,79-29.5A29.17,29.17,0,0,1,3523.65,1794.22Zm337,57q-18,18-51,81.5t-39.5,95q-6.51,31.5-6.5,51t15,19.5q19,0,47-35,41-51,81-133,4-9,9-10,8-3,8,6,0,5-3,12-92,186-155,186-29,0-47-28-9-15-9-40t10-61q-80,129-138,129a46.43,46.43,0,0,1-29-10q-30-21-30-72,0-98,85-199,48-56,118-73a141.22,141.22,0,0,1,36-5q46,0,78,32,10,11,6,21t-17,8q-11-36-48-36-43,0-106,68-36,40-67,94-39,65-39,104t25,39q60,0,157-184,19-37,32-50.5t33-13.5q4,0,20.5,3T3860.65,1851.22Zm1207-489q0,87-56.5,182t-156,165.5q-99.51,70.5-205.5,88.5-61,123-88,172l-21,34q198,49,328,149,66,51,89,125,12,38,12,65t-10.5,45.5q-10.5,18.5-24.5,25.5t-20,7q-6,0-6-5t11.5-29.5q11.49-24.51,11.5-57.5t-14-73q-14-40-52-73.5t-105.5-63q-67.5-29.5-117-42t-132.5-28.5q-85,119-177,163-55,27-97.5,27t-75.5-17q-57-28-57-85t75-100q85-50,230-50,52,0,94,8,45-70,105-193h-11q-63,0-117-21t-86-57q-42-47-42-106,0-31,15.5-67t69-73q53.49-37,135.5-56a100.22,100.22,0,0,1,22-3q9,0,11,5t-8,9a105.69,105.69,0,0,1-23,6,184.16,184.16,0,0,0-80,29q-64,41-89,126a133.68,133.68,0,0,0-6,38.5q0,18.49,7,44.5t30,53.5q23,27.49,62.5,38.5t69,11a459.46,459.46,0,0,0,54.5-3l85-214q88-226,210-278,32-13,62.5-13t58,19.5q27.49,19.5,29.5,47.5Q5067.64,1351.22,5067.65,1362.22Zm-42,1q0-38-35-38-51,0-124,89-57,71-109.5,171.5t-93.5,185.5q139-31,250.5-152.5T5025.65,1363.22Zm-554,680a459.32,459.32,0,0,0-101-11q-52,0-107,15-115,30-135,85a51.08,51.08,0,0,0-4,19q0,26,28.5,42.5a122.6,122.6,0,0,0,62.5,16.5q47,0,102-26Q4400.64,2144.22,4471.65,2043.22Zm588-271q73,0,73,92,0,42-22,90-28,65-84,118,13,25,47,25,27,0,51-27,30-31,43-54.5t19-34.5q6-11,15.5-31.5t11.5-25a7.07,7.07,0,0,1,7-4.5q10-1,10,7a16.24,16.24,0,0,1-2,7l-6,14q-6,14-9,20t-10.5,21.5q-7.5,15.49-13,24.5t-15,24a235.33,235.33,0,0,1-17,24q-7.5,9-18.5,20a112.26,112.26,0,0,1-21,17q-25,15-47,15-41,0-64-26-46,34-85,34-73,0-73-92,0-42,22-90,30-70,84.5-119T5059.65,1772.22Zm11,31q-27,0-64,36t-66,98q-35,72-35,118t35,46q25,0,56-27-16-23-16-49,2-43,35-43,13,0,21.5,9t8.5,16.5a63.85,63.85,0,0,1-2,15.5q17-25,39-71,25-51,25-100T5070.65,1803.22Zm353,261q0,32,26,32,47,0,125-157,3-6,5.5-12a13.51,13.51,0,0,1,8-8q5.49-2,7.5,2.5t-2,14.5q-80,186-162,186-27,0-43-24t-16-47.5a179,179,0,0,1,5-43.5q-58,96-100,109a60.93,60.93,0,0,1-23.5,5,85.07,85.07,0,0,1-22.5-3q-49-13-49-78,0-44,22.5-97.5t63.5-102.5q41-49,99-66,21-7,49.5-7t63.5,18q68-128,116-237,14-33,27.5-42.5t25-9.5h14q2.49,0,19,2.5t25.5,1.5q-23,21-122,204-126,234-152,312Q5423.65,2045.22,5423.65,2064.22Zm49-263q-13-13-36.5-13t-65.5,35q-67,56-111,138-29,54-29,89a63.88,63.88,0,0,0,6.5,29q6.49,13,20.5,13,34,0,84-70T5472.65,1801.22Zm38,637q-94,0-94-77,0-64,87-115,74-43,189-81,53-17,77-27,26-76,26-166,0-18-2-27-28,57-77,117-58,72-115,56-52-22-52-86,0-86,86-189,47-56,110-71a119.68,119.68,0,0,1,34-5q45,0,88,30,16,13,16,22t-6,17.5q-6,8.49-12.5,2t-8.5-12.5q-13-37-42-37-53,0-119,74a525.45,525.45,0,0,0-64,90q-33,60-33,92.5t20,43.5a35.52,35.52,0,0,0,14,3q23,0,57.5-31.5t64-80q29.49-48.51,37.5-75.5t19.5-34a56,56,0,0,1,25.5-8q14-1,19-5,8,45,8,105.5t-21,137.5q46-33,65.5-59t31-47q11.49-21,20.5-41.5t12-26.5a13.75,13.75,0,0,1,10-7.5q7-1.5,7,6.5,0,5-3,12-44,91-73.5,131.5t-80.5,64.5q-24,68-69.5,135t-114.5,118Q5578.65,2438.22,5510.65,2438.22Zm-73-58q0,38,49,38,29,0,65.5-17t60.5-35q41-33,90-98,37-52,57-101l-35,12q-156,54-220,96-47,31-62,79Q5437.64,2369.22,5437.65,2380.22Zm578-412q-14,34-14,76,0,28,12.5,44.5t35.5,16.5q91,0,165-171,7-16,17-14a4.72,4.72,0,0,1,4,5q0,4-22.5,52.5t-45.5,78.5q-51,70-126,70-40,0-68-26t-28-71q0-45,21.5-95.5a365.43,365.43,0,0,1,58.5-94q37-43.5,85-63.5,23-10,44-10a68.87,68.87,0,0,1,39,12q17,14,17,31,0,60-72,115-22,17-62,30.5T6015.65,1968.22Zm168-160q0-20-16-20-28,0-85,69a513.63,513.63,0,0,0-60,94q17,0,49.5-12t56.5-32Q6183.64,1860.21,6183.65,1808.22Z"/></svg>